# xmcd
#
# Track frame offsets: 
#        150
#        12317
#        22742
#        34667
#        47890
#        61327
#        74405
#        84422
#        93390
#        105750
#        118157
#        130977
#
# Disc length: 1925 seconds
#
# Revision: 3
# Processed by: cddbd v1.5.2PL0 Copyright (c) Steve Scherf et al.
# Submitted via: ExactAudioCopy v1.0b6
#
DISCID=9307830c
DTITLE=Little Walter - The Best Of Little Walter Volume Two
DYEAR=1989
DGENRE=Blues
TTITLE0=Mellow Down Easy (1954)
TTITLE1=I Don't Play (1960)
TTITLE2=Too Late (1953)
TTITLE3=Key To The Highway (1958)
TTITLE4=Boogie (1952)
TTITLE5=Just A Feeling (1956)
TTITLE6=Evans Shuffle (1950)
TTITLE7=Crazy Mixed Up World (1959)
TTITLE8=Lights Out (1953)
TTITLE9=Oh Baby (1954)
TTITLE10=Boom Boom (Out Go The Lights) (1955)
TTITLE11=It Ain't Right (1955)
EXTD=
EXTT0=
EXTT1=
EXTT2=
EXTT3=
EXTT4=
EXTT5=
EXTT6=
EXTT7=
EXTT8=
EXTT9=
EXTT10=
EXTT11=
PLAYORDER=
